<svg viewBox="0 0 1024 1176.463" fill="#71aaeb" xmlns="http://www.w3.org/2000/svg"><path  stroke="white" d="M861.62 291.43v155.043l-36.928-.2c-1.707.027-3.722.042-5.74.042-12.815 0-25.487-.612-37.988-1.807l1.592.123c-5.126-1.44-5.248-2.002-7.69-33.603-1.597-31.183-5.977-60.48-12.924-88.767l.668 3.215c-5.955-49.873-43.48-89.49-91.776-98.54l-.704-.11c-20.387-3.565-109.384-7.05-182.56-7.09l-50.468-.12v233.107l26.513-1.322c23.49-.15 46.067-3.83 67.3-10.533l-1.614.44c13.804-6.92 24.66-18.006 31.108-31.59l.175-.41c7.284-18.142 12.215-39.15 13.78-61.087l.04-.673c1.32-11.456 2.803-22.912 3.324-25.472.96-4.646 1.12-4.687 41.494-4.687h40.535V689.88h-82.59l-1.4-21.47c-1.062-33.854-8.01-65.79-19.85-95.232l.664 1.87c-12.457-24.072-36.93-34.886-86.155-38.05q-13.37-.792-26.675-2.364l-6.886-1.087.8 117.194c.842 123.604 1.202 128.41 10.615 138.784 9.65 10.654 15.26 11.375 113.228 14.74 2.003.08 2.604 9.855 2.604 41.694v41.615H162.384v-41.615c0-38.208.28-41.615 3.648-41.695 2.003-.04 21.75-.92 43.938-1.962 35.687-1.682 41.375-2.443 49.826-6.688 6.02-2.728 10.81-7.297 13.743-12.978l.074-.16c4.246-8.25 4.288-10.175 4.288-271.557 1.782-32.084 2.797-69.63 2.797-107.41 0-57.167-2.325-113.79-6.885-169.782l.482 7.357c-4.848-8.39-12.615-14.632-21.883-17.395l-.266-.068c-14.537-2.094-31.407-3.343-48.548-3.445h-.117l-41.094-1.083v-82.71h699.23zM813.837 31.365H210.123c-98.724 0-178.756 80.032-178.756 178.756v603.755c0 98.724 80.032 178.756 178.756 178.756h603.755c98.724 0 178.756-80.032 178.756-178.756v-.042.002V210.16v-.038c0-98.724-80.032-178.756-178.756-178.756h-.042.002z" /></svg>
