<svg xmlns="http://www.w3.org/2000/svg"  stroke="#71aaeb" viewBox="0 0 50 50" width="50px" height="50px"><path d="M 2 6 C 1.646 6 1.3176719 6.1871875 1.1386719 6.4921875 C 0.95867187 6.7961875 0.95495313 7.174375 1.1269531 7.484375 L 10.855469 25 L 1.1269531 42.515625 C 0.95495312 42.824625 0.95867188 43.202813 1.1386719 43.507812 C 1.3176719 43.812813 1.646 44 2 44 L 10 44 C 10.363 44 10.697047 43.803328 10.873047 43.486328 L 20.873047 25.486328 C 21.041047 25.184328 21.041047 24.817625 20.873047 24.515625 L 10.873047 6.515625 C 10.697047 6.197625 10.363 6 10 6 L 2 6 z M 14 6 C 13.646 6 13.317672 6.1871875 13.138672 6.4921875 C 12.958672 6.7961875 12.954953 7.174375 13.126953 7.484375 L 22.855469 25 L 13.126953 42.515625 C 12.954953 42.824625 12.958672 43.202813 13.138672 43.507812 C 13.317672 43.812813 13.646 44 14 44 L 22 44 C 22.363 44 22.697047 43.803328 22.873047 43.486328 L 28 34.259766 L 33.126953 43.484375 C 33.302953 43.802375 33.637 44 34 44 L 42 44 C 42.354 44 42.682328 43.812812 42.861328 43.507812 C 43.041328 43.203812 43.045047 42.825625 42.873047 42.515625 L 22.873047 6.515625 C 22.697047 6.197625 22.363 6 22 6 L 14 6 z M 3.6992188 8 L 9.4101562 8 L 18.855469 25 L 9.4101562 42 L 3.6992188 42 L 12.873047 25.486328 C 13.041047 25.184328 13.041047 24.817625 12.873047 24.515625 L 3.6992188 8 z M 15.699219 8 L 21.410156 8 L 40.300781 42 L 34.589844 42 L 28.873047 31.714844 C 28.521047 31.079844 27.478953 31.079844 27.126953 31.714844 L 21.410156 42 L 15.699219 42 L 24.873047 25.486328 C 25.041047 25.184328 25.041047 24.817625 24.873047 24.515625 L 15.699219 8 z M 33.242188 18 C 32.888187 18 32.560859 18.187188 32.380859 18.492188 C 32.200859 18.796187 32.195188 19.174375 32.367188 19.484375 L 35.701172 25.484375 C 35.878172 25.802375 36.213172 26 36.576172 26 L 48 26 C 48.553 26 49 25.553 49 25 L 49 19 C 49 18.447 48.553 18 48 18 L 33.242188 18 z M 34.941406 20 L 47 20 L 47 24 L 37.164062 24 L 34.941406 20 z M 38.798828 28 C 38.443828 28 38.1165 28.187188 37.9375 28.492188 C 37.7575 28.796187 37.753781 29.174375 37.925781 29.484375 L 41.257812 35.484375 C 41.433812 35.802375 41.769813 36 42.132812 36 L 48 36 C 48.553 36 49 35.553 49 35 L 49 29 C 49 28.447 48.553 28 48 28 L 38.798828 28 z M 40.498047 30 L 47 30 L 47 34 L 42.720703 34 L 40.498047 30 z"/></svg>
